<?xml version="1.0" encoding="iso-8859-1"?>
<!-- Generator: Adobe Illustrator 16.0.0, SVG Export Plug-In . SVG Version: 6.00 Build 0)  -->
<!DOCTYPE svg PUBLIC "-//W3C//DTD SVG 1.1//EN" "http://www.w3.org/Graphics/SVG/1.1/DTD/svg11.dtd">
<svg version="1.1" id="Capa_1" xmlns="http://www.w3.org/2000/svg" xmlns:xlink="http://www.w3.org/1999/xlink" x="0px" y="0px"
	 width="30px" height="30px" viewBox="0 0 896.004 896.004" style="enable-background:new 0 0 896.004 896.004;"
	 xml:space="preserve">
<g>
	<g>
		<path fill="orange" d="M630.048,420.876c-13.205-89.18-89.279-157.829-182.045-157.829c-92.766,0-168.839,68.649-182.043,157.829H1.8
			C15.883,186.15,209.967,0,448.002,0s432.118,186.15,446.2,420.875L630.048,420.876L630.048,420.876z M371.629,443.891
			c0-42.673,34.559-77.269,77.194-77.269c42.634,0,77.197,34.596,77.197,77.269c0,42.676-34.562,77.271-77.197,77.271
			C406.189,521.162,371.629,486.566,371.629,443.891 M448.002,632.958c93.329,0,169.7-69.503,182.209-159.474h264.074
			c-13.268,235.496-207.693,422.52-446.284,422.52S14.989,708.982,1.718,473.484h264.076
			C278.299,563.455,354.673,632.958,448.002,632.958"/>
	</g>
</g>
</svg>
